<?xml version="1.0" encoding="utf-8"?>
<!-- Generator: Adobe Illustrator 22.1.0, SVG Export Plug-In . SVG Version: 6.00 Build 0)  -->
<svg version="1.1" id="Capa_1" xmlns="http://www.w3.org/2000/svg" xmlns:xlink="http://www.w3.org/1999/xlink" x="0px" y="0px"
	 viewBox="0 0 60 31" style="enable-background:new 0 0 60 31;" xml:space="preserve">
<path d="M44.5,0C36,0,29,7,29,15.5C29,22.9,22.9,29,15.5,29S2,22.9,2,15.5S8.1,2,15.5,2c2.7,0,5.3,0.8,7.5,2.3
	c0.7,0.5,1.4,1.1,2.1,1.7c0.4,0.4,1,0.4,1.4,0c0.4-0.4,0.4-1,0-1.4c-0.7-0.7-1.5-1.4-2.4-1.9C21.6,0.9,18.6,0,15.5,0C7,0,0,7,0,15.5
	S7,31,15.5,31S31,24,31,15.5C31,8.1,37.1,2,44.5,2S58,8.1,58,15.5S51.9,29,44.5,29c-3.6,0-7-1.4-9.5-4c-0.4-0.4-1-0.4-1.4,0
	s-0.4,1,0,1.4c2.9,2.9,6.8,4.5,11,4.5C53,31,60,24,60,15.5S53,0,44.5,0z"/>
</svg>
